<svg width="85" height="23" viewBox="0 0 85 23" fill="none" xmlns="http://www.w3.org/2000/svg">
<path d="M3.875 0V18H0.488281V0H3.875ZM12.5 18.2344C11.5156 18.2344 10.6328 18.0781 9.85156 17.7656C9.07031 17.4453 8.40625 17.0039 7.85938 16.4414C7.32031 15.8789 6.90625 15.2266 6.61719 14.4844C6.32812 13.7344 6.18359 12.9375 6.18359 12.0938V11.625C6.18359 10.6641 6.32031 9.78516 6.59375 8.98828C6.86719 8.19141 7.25781 7.5 7.76562 6.91406C8.28125 6.32812 8.90625 5.87891 9.64062 5.56641C10.375 5.24609 11.2031 5.08594 12.125 5.08594C13.0234 5.08594 13.8203 5.23438 14.5156 5.53125C15.2109 5.82812 15.793 6.25 16.2617 6.79688C16.7383 7.34375 17.0977 8 17.3398 8.76562C17.582 9.52344 17.7031 10.3672 17.7031 11.2969V12.7031H7.625V10.4531H14.3867V10.1953C14.3867 9.72656 14.3008 9.30859 14.1289 8.94141C13.9648 8.56641 13.7148 8.26953 13.3789 8.05078C13.043 7.83203 12.6133 7.72266 12.0898 7.72266C11.6445 7.72266 11.2617 7.82031 10.9414 8.01562C10.6211 8.21094 10.3594 8.48438 10.1562 8.83594C9.96094 9.1875 9.8125 9.60156 9.71094 10.0781C9.61719 10.5469 9.57031 11.0625 9.57031 11.625V12.0938C9.57031 12.6016 9.64062 13.0703 9.78125 13.5C9.92969 13.9297 10.1367 14.3008 10.4023 14.6133C10.6758 14.9258 11.0039 15.168 11.3867 15.3398C11.7773 15.5117 12.2188 15.5977 12.7109 15.5977C13.3203 15.5977 13.8867 15.4805 14.4102 15.2461C14.9414 15.0039 15.3984 14.6406 15.7812 14.1562L17.4219 15.9375C17.1562 16.3203 16.793 16.6875 16.332 17.0391C15.8789 17.3906 15.332 17.6797 14.6914 17.9062C14.0508 18.125 13.3203 18.2344 12.5 18.2344ZM19.0859 11.7891V11.543C19.0859 10.6133 19.2188 9.75781 19.4844 8.97656C19.75 8.1875 20.1367 7.50391 20.6445 6.92578C21.1523 6.34766 21.7773 5.89844 22.5195 5.57812C23.2617 5.25 24.1133 5.08594 25.0742 5.08594C26.0352 5.08594 26.8906 5.25 27.6406 5.57812C28.3906 5.89844 29.0195 6.34766 29.5273 6.92578C30.043 7.50391 30.4336 8.1875 30.6992 8.97656C30.9648 9.75781 31.0977 10.6133 31.0977 11.543V11.7891C31.0977 12.7109 30.9648 13.5664 30.6992 14.3555C30.4336 15.1367 30.043 15.8203 29.5273 16.4062C29.0195 16.9844 28.3945 17.4336 27.6523 17.7539C26.9102 18.0742 26.0586 18.2344 25.0977 18.2344C24.1367 18.2344 23.2812 18.0742 22.5312 17.7539C21.7891 17.4336 21.1602 16.9844 20.6445 16.4062C20.1367 15.8203 19.75 15.1367 19.4844 14.3555C19.2188 13.5664 19.0859 12.7109 19.0859 11.7891ZM22.4609 11.543V11.7891C22.4609 12.3203 22.5078 12.8164 22.6016 13.2773C22.6953 13.7383 22.8438 14.1445 23.0469 14.4961C23.2578 14.8398 23.5312 15.1094 23.8672 15.3047C24.2031 15.5 24.6133 15.5977 25.0977 15.5977C25.5664 15.5977 25.9688 15.5 26.3047 15.3047C26.6406 15.1094 26.9102 14.8398 27.1133 14.4961C27.3164 14.1445 27.4648 13.7383 27.5586 13.2773C27.6602 12.8164 27.7109 12.3203 27.7109 11.7891V11.543C27.7109 11.0273 27.6602 10.543 27.5586 10.0898C27.4648 9.62891 27.3125 9.22266 27.1016 8.87109C26.8984 8.51172 26.6289 8.23047 26.293 8.02734C25.957 7.82422 25.5508 7.72266 25.0742 7.72266C24.5977 7.72266 24.1914 7.82422 23.8555 8.02734C23.5273 8.23047 23.2578 8.51172 23.0469 8.87109C22.8438 9.22266 22.6953 9.62891 22.6016 10.0898C22.5078 10.543 22.4609 11.0273 22.4609 11.543ZM33.3359 16.3711C33.3359 15.8711 33.5078 15.4531 33.8516 15.1172C34.2031 14.7812 34.668 14.6133 35.2461 14.6133C35.8242 14.6133 36.2852 14.7812 36.6289 15.1172C36.9805 15.4531 37.1562 15.8711 37.1562 16.3711C37.1562 16.8711 36.9805 17.2891 36.6289 17.625C36.2852 17.9609 35.8242 18.1289 35.2461 18.1289C34.668 18.1289 34.2031 17.9609 33.8516 17.625C33.5078 17.2891 33.3359 16.8711 33.3359 16.3711ZM40.1328 0H43.5078V15.0938L43.168 18H40.1328V0ZM51.5352 11.5312V11.7773C51.5352 12.7227 51.4336 13.5898 51.2305 14.3789C51.0352 15.168 50.7305 15.8516 50.3164 16.4297C49.9023 17 49.3867 17.4453 48.7695 17.7656C48.1602 18.0781 47.4414 18.2344 46.6133 18.2344C45.8398 18.2344 45.168 18.0781 44.5977 17.7656C44.0352 17.4531 43.5625 17.0117 43.1797 16.4414C42.7969 15.8711 42.4883 15.2031 42.2539 14.4375C42.0195 13.6719 41.8438 12.8359 41.7266 11.9297V11.3906C41.8438 10.4844 42.0195 9.64844 42.2539 8.88281C42.4883 8.11719 42.7969 7.44922 43.1797 6.87891C43.5625 6.30859 44.0352 5.86719 44.5977 5.55469C45.1602 5.24219 45.8242 5.08594 46.5898 5.08594C47.4258 5.08594 48.1523 5.24609 48.7695 5.56641C49.3945 5.87891 49.9102 6.32422 50.3164 6.90234C50.7305 7.47266 51.0352 8.15234 51.2305 8.94141C51.4336 9.72266 51.5352 10.5859 51.5352 11.5312ZM48.1602 11.7773V11.5312C48.1602 11.0156 48.1211 10.5312 48.043 10.0781C47.9727 9.61719 47.8477 9.21484 47.668 8.87109C47.4883 8.51953 47.2422 8.24219 46.9297 8.03906C46.625 7.83594 46.2305 7.73438 45.7461 7.73438C45.2852 7.73438 44.8945 7.8125 44.5742 7.96875C44.2539 8.125 43.9883 8.34375 43.7773 8.625C43.5742 8.90625 43.4219 9.24219 43.3203 9.63281C43.2188 10.0156 43.1562 10.4375 43.1328 10.8984V12.4336C43.1562 13.0508 43.2578 13.5977 43.4375 14.0742C43.625 14.543 43.9062 14.9141 44.2812 15.1875C44.6641 15.4531 45.1602 15.5859 45.7695 15.5859C46.2461 15.5859 46.6406 15.4922 46.9531 15.3047C47.2656 15.1172 47.5078 14.8516 47.6797 14.5078C47.8594 14.1641 47.9844 13.7617 48.0547 13.3008C48.125 12.832 48.1602 12.3242 48.1602 11.7773ZM57.1953 0V18H53.8086V0H57.1953ZM59.4453 11.7891V11.543C59.4453 10.6133 59.5781 9.75781 59.8438 8.97656C60.1094 8.1875 60.4961 7.50391 61.0039 6.92578C61.5117 6.34766 62.1367 5.89844 62.8789 5.57812C63.6211 5.25 64.4727 5.08594 65.4336 5.08594C66.3945 5.08594 67.25 5.25 68 5.57812C68.75 5.89844 69.3789 6.34766 69.8867 6.92578C70.4023 7.50391 70.793 8.1875 71.0586 8.97656C71.3242 9.75781 71.457 10.6133 71.457 11.543V11.7891C71.457 12.7109 71.3242 13.5664 71.0586 14.3555C70.793 15.1367 70.4023 15.8203 69.8867 16.4062C69.3789 16.9844 68.7539 17.4336 68.0117 17.7539C67.2695 18.0742 66.418 18.2344 65.457 18.2344C64.4961 18.2344 63.6406 18.0742 62.8906 17.7539C62.1484 17.4336 61.5195 16.9844 61.0039 16.4062C60.4961 15.8203 60.1094 15.1367 59.8438 14.3555C59.5781 13.5664 59.4453 12.7109 59.4453 11.7891ZM62.8203 11.543V11.7891C62.8203 12.3203 62.8672 12.8164 62.9609 13.2773C63.0547 13.7383 63.2031 14.1445 63.4062 14.4961C63.6172 14.8398 63.8906 15.1094 64.2266 15.3047C64.5625 15.5 64.9727 15.5977 65.457 15.5977C65.9258 15.5977 66.3281 15.5 66.6641 15.3047C67 15.1094 67.2695 14.8398 67.4727 14.4961C67.6758 14.1445 67.8242 13.7383 67.918 13.2773C68.0195 12.8164 68.0703 12.3203 68.0703 11.7891V11.543C68.0703 11.0273 68.0195 10.543 67.918 10.0898C67.8242 9.62891 67.6719 9.22266 67.4609 8.87109C67.2578 8.51172 66.9883 8.23047 66.6523 8.02734C66.3164 7.82422 65.9102 7.72266 65.4336 7.72266C64.957 7.72266 64.5508 7.82422 64.2148 8.02734C63.8867 8.23047 63.6172 8.51172 63.4062 8.87109C63.2031 9.22266 63.0547 9.62891 62.9609 10.0898C62.8672 10.543 62.8203 11.0273 62.8203 11.543ZM81.5586 5.32031H84.6172V17.5781C84.6172 18.7344 84.3594 19.7148 83.8438 20.5195C83.3359 21.332 82.625 21.9453 81.7109 22.3594C80.7969 22.7812 79.7344 22.9922 78.5234 22.9922C77.9922 22.9922 77.4297 22.9219 76.8359 22.7812C76.25 22.6406 75.6875 22.4219 75.1484 22.125C74.6172 21.8281 74.1719 21.4531 73.8125 21L75.3008 19.0078C75.6914 19.4609 76.1445 19.8125 76.6602 20.0625C77.1758 20.3203 77.7461 20.4492 78.3711 20.4492C78.9805 20.4492 79.4961 20.3359 79.918 20.1094C80.3398 19.8906 80.6641 19.5664 80.8906 19.1367C81.1172 18.7148 81.2305 18.2031 81.2305 17.6016V8.25L81.5586 5.32031ZM73.0273 11.8125V11.5664C73.0273 10.5977 73.1445 9.71875 73.3789 8.92969C73.6211 8.13281 73.9609 7.44922 74.3984 6.87891C74.8438 6.30859 75.3828 5.86719 76.0156 5.55469C76.6484 5.24219 77.3633 5.08594 78.1602 5.08594C79.0039 5.08594 79.7109 5.24219 80.2812 5.55469C80.8516 5.86719 81.3203 6.3125 81.6875 6.89062C82.0547 7.46094 82.3398 8.13672 82.543 8.91797C82.7539 9.69141 82.918 10.5391 83.0352 11.4609V12C82.918 12.8828 82.7422 13.7031 82.5078 14.4609C82.2734 15.2188 81.9648 15.8828 81.582 16.4531C81.1992 17.0156 80.7227 17.4531 80.1523 17.7656C79.5898 18.0781 78.918 18.2344 78.1367 18.2344C77.3555 18.2344 76.6484 18.0742 76.0156 17.7539C75.3906 17.4336 74.8555 16.9844 74.4102 16.4062C73.9648 15.8281 73.6211 15.1484 73.3789 14.3672C73.1445 13.5859 73.0273 12.7344 73.0273 11.8125ZM76.4023 11.5664V11.8125C76.4023 12.3359 76.4531 12.8242 76.5547 13.2773C76.6562 13.7305 76.8125 14.1328 77.0234 14.4844C77.2422 14.8281 77.5117 15.0977 77.832 15.293C78.1602 15.4805 78.5469 15.5742 78.9922 15.5742C79.6094 15.5742 80.1133 15.4453 80.5039 15.1875C80.8945 14.9219 81.1875 14.5586 81.3828 14.0977C81.5781 13.6367 81.6914 13.1055 81.7227 12.5039V10.9688C81.707 10.4766 81.6406 10.0352 81.5234 9.64453C81.4062 9.24609 81.2422 8.90625 81.0312 8.625C80.8203 8.34375 80.5469 8.125 80.2109 7.96875C79.875 7.8125 79.4766 7.73438 79.0156 7.73438C78.5703 7.73438 78.1836 7.83594 77.8555 8.03906C77.5352 8.23438 77.2656 8.50391 77.0469 8.84766C76.8359 9.19141 76.6758 9.59766 76.5664 10.0664C76.457 10.5273 76.4023 11.0273 76.4023 11.5664Z" fill="#E1E1E6"/>
</svg>
